<svg width="77" height="47" viewBox="0 0 77 47" fill="none" xmlns="http://www.w3.org/2000/svg">
<path d="M16.703 46.318C14.8323 46.318 12.86 46.0943 10.786 45.647C8.75267 45.2403 7.04467 44.5897 5.662 43.695C3.75067 42.3937 2.34767 40.7263 1.453 38.693C0.558334 36.6597 0.111 34.4433 0.111 32.044C0.111 29.6447 0.497333 27.1437 1.27 24.541C2.08333 21.9383 3.24233 19.3967 4.747 16.916C6.25167 14.3947 8.02067 12.0767 10.054 9.962C12.128 7.80667 14.446 5.97667 17.008 4.472C19.57 2.96733 22.2947 1.93033 25.182 1.361C27.012 0.994999 28.7607 0.812 30.428 0.812C33.6813 0.812 36.284 1.46267 38.236 2.764C40.188 4.02466 41.164 5.65133 41.164 7.644C41.164 8.05067 41.1233 8.45733 41.042 8.864C41.0013 9.23 40.8793 9.63666 40.676 10.084C40.2287 11.2633 39.4763 12.3207 38.419 13.256C37.4023 14.1507 36.223 14.842 34.881 15.33C33.5797 15.818 32.2377 16.0213 30.855 15.94C30.2043 15.8587 29.635 15.635 29.147 15.269C28.6997 14.8623 28.476 14.3743 28.476 13.805C28.476 13.2357 28.72 12.6257 29.208 11.975C29.6553 12.1377 30.1637 12.219 30.733 12.219C31.7497 12.219 32.746 11.975 33.722 11.487C34.698 10.999 35.5113 10.328 36.162 9.474C36.8127 8.62 37.138 7.66433 37.138 6.607C37.138 5.18367 36.65 4.24833 35.674 3.801C34.698 3.313 33.6 3.069 32.38 3.069C31.5667 3.069 30.7533 3.15033 29.94 3.313C29.1673 3.435 28.537 3.557 28.049 3.679C25.731 4.289 23.474 5.46833 21.278 7.217C19.082 8.925 17.069 10.9583 15.239 13.317C13.4497 15.6757 11.945 18.1157 10.725 20.637C9.95233 22.2637 9.24067 24.236 8.59 26.554C7.93933 28.872 7.614 31.1493 7.614 33.386C7.614 34.5653 7.71567 35.704 7.919 36.802C8.163 37.8593 8.54933 38.8353 9.078 39.73C9.932 41.194 11.1113 42.2107 12.616 42.78C14.1613 43.3493 15.7677 43.634 17.435 43.634C18.6957 43.634 19.936 43.5323 21.156 43.329C22.4167 43.085 23.5553 42.78 24.572 42.414C25.8733 41.9667 27.134 41.3567 28.354 40.584C29.574 39.7707 30.6923 38.8557 31.709 37.839C32.8477 36.6597 33.8033 35.3787 34.576 33.996C35.3893 32.6133 35.918 31.1697 36.162 29.665H32.929C31.1397 29.665 29.2893 29.6853 27.378 29.726C25.4667 29.726 24.023 29.8073 23.047 29.97C23.047 29.97 23.1893 29.726 23.474 29.238C23.7587 28.7093 24.1247 28.1197 24.572 27.469C25.0193 26.7777 25.487 26.188 25.975 25.7C26.5037 25.1713 26.9917 24.907 27.439 24.907H45.312C45.0273 26.4523 44.519 27.5503 43.787 28.201C43.055 28.8517 42.14 29.2787 41.042 29.482C40.8387 30.0513 40.6353 30.6207 40.432 31.19C40.2287 31.7187 40.0253 32.1457 39.822 32.471C37.5447 37.1477 34.4337 40.6247 30.489 42.902C26.5443 45.1793 21.949 46.318 16.703 46.318ZM54.8542 45.22C52.8209 45.22 50.9299 45.037 49.1812 44.671C47.4325 44.305 45.9685 43.695 44.7892 42.841C43.9759 42.231 43.3455 41.4583 42.8982 40.523C42.4915 39.5877 42.2882 38.632 42.2882 37.656C42.2882 36.436 42.6339 35.2973 43.3252 34.24C44.0165 33.1827 45.1145 32.471 46.6192 32.105C46.8225 32.0643 47.0055 32.044 47.1682 32.044C47.3715 32.0033 47.5545 31.983 47.7172 31.983C48.5305 31.983 49.2422 32.166 49.8522 32.532C50.5029 32.898 50.9502 33.325 51.1942 33.813C51.0315 33.935 50.8079 34.1587 50.5232 34.484C50.2385 34.7687 50.0555 35.0127 49.9742 35.216C49.3642 36.2327 49.0592 37.2493 49.0592 38.266C49.0592 39.6487 49.5879 40.7873 50.6452 41.682C51.7432 42.536 53.1665 42.963 54.9152 42.963C56.5012 42.963 57.9855 42.5767 59.3682 41.804C60.7915 40.9907 61.9302 39.913 62.7842 38.571C63.6789 37.229 64.1262 35.6837 64.1262 33.935C64.1262 32.6337 63.8212 31.251 63.2112 29.787C62.6825 28.5263 61.9505 27.408 61.0152 26.432C60.1205 25.456 59.2665 24.541 58.4532 23.687C57.3552 22.5077 56.2979 21.369 55.2812 20.271C54.3052 19.1323 53.4919 17.9123 52.8412 16.611C52.2312 15.269 51.9262 13.7643 51.9262 12.097C51.9262 10.511 52.2515 8.96566 52.9022 7.461C53.5935 5.95633 54.5695 4.67533 55.8302 3.618C57.2535 2.398 58.8802 1.544 60.7102 1.056C62.5402 0.567998 64.4515 0.323999 66.4442 0.323999C68.9249 0.323999 70.8769 0.649332 72.3002 1.3C73.7642 1.91 74.8012 2.703 75.4112 3.679C76.0619 4.655 76.3872 5.692 76.3872 6.79C76.3872 7.84733 76.1432 8.864 75.6552 9.84C75.2079 10.816 74.5775 11.6497 73.7642 12.341C72.9509 12.9917 72.0562 13.3983 71.0802 13.561C70.9175 13.6017 70.7549 13.622 70.5922 13.622C70.4295 13.622 70.2465 13.622 70.0432 13.622C69.1485 13.622 68.3555 13.4187 67.6642 13.012C67.0135 12.6053 66.6882 11.914 66.6882 10.938C66.6882 10.816 66.6882 10.6737 66.6882 10.511C66.7289 10.3483 66.7695 10.1857 66.8102 10.023C67.5422 10.023 68.2945 9.75866 69.0672 9.23C69.8399 8.70133 70.3482 8.11167 70.5922 7.461C70.7955 6.93233 70.8972 6.44433 70.8972 5.997C70.8972 4.899 70.3889 4.045 69.3722 3.435C68.3962 2.78433 67.2372 2.459 65.8952 2.459C64.3092 2.459 62.8859 2.80466 61.6252 3.496C60.4052 4.14667 59.4495 5.021 58.7582 6.119C58.0669 7.17633 57.7212 8.33533 57.7212 9.596C57.7212 10.8567 58.1075 12.0767 58.8802 13.256C59.5309 14.1913 60.3442 15.1673 61.3202 16.184C62.2962 17.16 63.2925 18.1157 64.3092 19.051C65.3259 19.9457 66.2002 20.7793 66.9322 21.552C68.5995 23.1787 69.7992 24.846 70.5312 26.554C71.2632 28.2213 71.6292 29.8683 71.6292 31.495C71.6292 33.3657 71.1819 35.1347 70.2872 36.802C69.4332 38.4287 68.2335 39.8723 66.6882 41.133C65.1429 42.3937 63.3535 43.39 61.3202 44.122C59.2869 44.854 57.1315 45.22 54.8542 45.22Z" fill="white"/>
</svg>
